<?xml version="1.0" encoding="UTF-8"?>
<svg version="1.1" xmlns="http://www.w3.org/2000/svg" width="626" height="417">
<path d="M0 0 C206.58 0 413.16 0 626 0 C626 137.61 626 275.22 626 417 C419.42 417 212.84 417 0 417 C0 279.39 0 141.78 0 0 Z " fill="#FEFEFE" transform="translate(0,0)"/>
<path d="M0 0 C4.22084417 1.33171019 7.434104 3.14428624 11.08984375 5.58984375 C12.51152892 6.50940814 13.9334092 7.42867093 15.35546875 8.34765625 C16.07283203 8.81719727 16.79019531 9.28673828 17.52929688 9.77050781 C20.77134533 11.88067275 24.05528171 13.92175677 27.33984375 15.96484375 C27.98042725 16.36598389 28.62101074 16.76712402 29.28100586 17.18041992 C33.19052138 19.62784794 37.1136762 22.05174077 41.046875 24.4609375 C41.97604736 25.03158936 42.90521973 25.60224121 43.86254883 26.19018555 C45.67156377 27.30041761 47.48248863 28.40754599 49.2956543 29.51098633 C64.27925778 38.71739772 64.27925778 38.71739772 65.46484375 43.27734375 C63.60719011 49.8505797 55.22539222 52.85730863 49.6015625 56.01171875 C45.011005 58.53292202 40.32150471 60.84293798 35.62036133 63.14916992 C31.15948213 65.35295732 26.82450619 67.70786296 22.52734375 70.21484375 C16.71962039 73.59605256 10.81513995 76.60493399 4.77734375 79.54296875 C2.11257442 80.91532496 -0.26808929 82.38315266 -2.72265625 84.08984375 C-6.70506874 86.69901055 -9.65626349 86.71854632 -14.34765625 86.15234375 C-16.34765625 84.15234375 -16.34765625 84.15234375 -16.578125 80.96484375 C-16.56394531 79.70671875 -16.54976562 78.44859375 -16.53515625 77.15234375 C-16.52548828 75.26515625 -16.52548828 75.26515625 -16.515625 73.33984375 C-16.34765625 70.15234375 -16.34765625 70.15234375 -15.34765625 68.15234375 C-15.12143544 66.44870553 -14.93877152 64.73905674 -14.78515625 63.02734375 C-14.70136719 62.11726563 -14.61757813 61.2071875 -14.53125 60.26953125 C-14.47066406 59.57085937 -14.41007812 58.8721875 -14.34765625 58.15234375 C-31.61191682 58.23644085 -48.87607625 58.33164585 -66.14020157 58.43987083 C-74.15725063 58.48987238 -82.1742901 58.53631611 -90.19140625 58.57421875 C-97.18371789 58.60728562 -104.17595225 58.64719655 -111.16817832 58.69513381 C-114.86632903 58.72025365 -118.56442945 58.74207668 -122.26264191 58.75568771 C-126.40339656 58.77105629 -130.54390908 58.80171299 -134.68457031 58.83349609 C-135.89442596 58.83565628 -137.10428162 58.83781647 -138.35079956 58.84004211 C-148.97797826 58.94374587 -159.08812517 60.33918872 -169.16015625 63.77734375 C-169.92223389 64.03676758 -170.68431152 64.29619141 -171.46948242 64.56347656 C-185.23497718 69.43789081 -198.3289932 76.92376805 -208.5859375 87.44921875 C-210.34765625 89.15234375 -210.34765625 89.15234375 -212.34765625 89.15234375 C-212.610625 89.73628906 -212.87359375 90.32023437 -213.14453125 90.921875 C-214.40302018 93.25498272 -215.79515979 94.90337796 -217.59765625 96.83984375 C-221.32345695 101.01397731 -224.40807998 105.39811286 -227.34765625 110.15234375 C-227.76789063 110.82652344 -228.188125 111.50070313 -228.62109375 112.1953125 C-240.58796384 132.50850281 -244.91043086 157.07614476 -239.34765625 180.15234375 C-236.13550631 191.08574375 -231.52260904 200.95723897 -224.16796875 209.76171875 C-222.34765625 212.15234375 -222.34765625 212.15234375 -221.84765625 215.21484375 C-222.4781663 218.91909027 -223.38391786 219.88227188 -226.34765625 222.15234375 C-229.55566406 222.60644531 -229.55566406 222.60644531 -233.30078125 222.54296875 C-233.96100281 222.53730896 -234.62122437 222.53164917 -235.30145264 222.52581787 C-237.40093888 222.50350605 -239.49868995 222.45332689 -241.59765625 222.40234375 C-243.02471485 222.38227169 -244.45180033 222.36402214 -245.87890625 222.34765625 C-249.36904918 222.30366068 -252.85818324 222.23467251 -256.34765625 222.15234375 C-272.21683514 190.18274936 -278.04348791 158.77463032 -266.63476562 123.97802734 C-265.10476215 119.59138516 -263.29288055 115.37338466 -261.34765625 111.15234375 C-260.82429687 109.98574219 -260.3009375 108.81914062 -259.76171875 107.6171875 C-255.55274302 98.69534458 -250.31025376 90.95323116 -244.34765625 83.15234375 C-243.65027344 82.21777344 -242.95289063 81.28320312 -242.234375 80.3203125 C-223.99721384 56.86272102 -196.99188932 39.77394927 -168.34765625 32.15234375 C-167.14115417 31.82829559 -165.9346521 31.50424744 -164.69158936 31.17037964 C-147.64749714 26.94889821 -129.47769935 27.87727149 -112.06899548 27.94955587 C-108.47896814 27.96226291 -104.88893552 27.96324915 -101.29888916 27.96560669 C-94.53507364 27.97176391 -87.77132463 27.98809463 -81.00753808 28.00830567 C-73.2925993 28.03084665 -65.57765695 28.04170332 -57.86269331 28.05169654 C-42.02430943 28.0724677 -26.18599149 28.10752852 -10.34765625 28.15234375 C-10.31325439 27.51731934 -10.27885254 26.88229492 -10.2434082 26.22802734 C-10.0727072 23.32584569 -9.8667651 20.42718129 -9.66015625 17.52734375 C-9.60666016 16.52832031 -9.55316406 15.52929688 -9.49804688 14.5 C-8.99181618 7.85297084 -8.0832679 0.36785 0 0 Z " fill="#049247" transform="translate(464.34765625,59.84765625)"/>
<path d="M0 0 C1.92295898 -0.0009668 1.92295898 -0.0009668 3.88476562 -0.00195312 C4.88141235 0.01363647 4.88141235 0.01363647 5.89819336 0.02954102 C7.931003 0.05855677 9.96121192 0.05013309 11.99414062 0.03710938 C21.82456045 0.10142516 21.82456045 0.10142516 24.15380859 1.78344727 C25.43430961 3.58503464 26.41744145 5.32466442 27.34375 7.33203125 C27.68599609 8.06679687 28.02824219 8.8015625 28.38085938 9.55859375 C28.90196289 10.70328125 28.90196289 10.70328125 29.43359375 11.87109375 C29.78486328 12.62648437 30.13613281 13.381875 30.49804688 14.16015625 C31.47153385 16.26539084 32.42489352 18.37848421 33.37109375 20.49609375 C33.75007813 21.33011719 34.1290625 22.16414063 34.51953125 23.0234375 C35.72111726 26.51244641 36.31252024 30.05244971 36.93359375 33.68359375 C37.67487475 38.73368184 37.67487475 38.73368184 39.37109375 43.49609375 C40.59731777 60.45688615 39.33380667 76.99797497 35.37109375 93.49609375 C35.10554688 94.676875 34.84 95.85765625 34.56640625 97.07421875 C28.71725999 119.24526838 13.37044004 139.5364059 -2.62890625 155.49609375 C-3.40234375 156.28113281 -4.17578125 157.06617188 -4.97265625 157.875 C-19.11442635 171.4113861 -37.19430074 181.46571802 -55.62890625 187.80859375 C-56.29148437 188.0391748 -56.9540625 188.26975586 -57.63671875 188.50732422 C-70.04826735 192.52161073 -82.49659112 193.94691476 -95.48046875 193.83666992 C-96.88182558 193.83582041 -98.28318373 193.83630508 -99.68453979 193.83799744 C-103.43152855 193.8388462 -107.17821982 193.82140558 -110.92514038 193.80027556 C-114.86218697 193.78131859 -118.79924294 193.77974354 -122.73632812 193.77619934 C-130.16612986 193.76693403 -137.59579666 193.74239631 -145.0255394 193.71215087 C-153.49489582 193.67843344 -161.96425923 193.66207759 -170.43366623 193.64706457 C-187.83215718 193.61584074 -205.23051737 193.56318954 -222.62890625 193.49609375 C-222.69692444 194.3203334 -222.76494263 195.14457306 -222.83502197 195.99378967 C-222.96937653 197.6154026 -222.96937653 197.6154026 -223.10644531 199.26977539 C-223.1950885 200.34151505 -223.28373169 201.4132547 -223.37506104 202.51747131 C-224.61071556 217.01665455 -224.61071556 217.01665455 -227.87890625 220.80859375 C-230.62890625 222.49609375 -230.62890625 222.49609375 -233.25 222.42578125 C-237.85317217 221.1592437 -241.43780361 218.86078085 -245.44140625 216.30859375 C-246.24312256 215.80827637 -247.04483887 215.30795898 -247.87084961 214.79248047 C-252.5363876 211.86826847 -257.14047018 208.86331819 -261.6875 205.7578125 C-264.53737537 203.90568022 -267.52454505 202.32855924 -270.51171875 200.7109375 C-273.09613593 199.22799701 -275.43432691 197.51142681 -277.82421875 195.73828125 C-279.8159968 194.36731714 -281.86732143 193.25222689 -284.00390625 192.12109375 C-288.97488368 189.44309731 -293.27338691 186.06906115 -297.62890625 182.49609375 C-297.68523368 179.67972222 -297.64789782 178.06436841 -296.62890625 175.49609375 C-291.93746017 170.87432261 -285.33563235 168.2855831 -279.4831543 165.45092773 C-274.26012997 162.89339943 -269.26264498 160.01030694 -264.25390625 157.05859375 C-257.7358383 153.22420629 -251.16569312 149.65402814 -244.35839844 146.36157227 C-241.07381461 144.76127313 -237.87683918 143.09277081 -234.734375 141.2265625 C-234.10635986 140.85362061 -233.47834473 140.48067871 -232.83129883 140.09643555 C-231.11828838 139.06496753 -229.41613787 138.0155242 -227.71484375 136.96484375 C-224.33729121 135.35729976 -222.31920394 134.94624997 -218.62890625 135.49609375 C-214.46972918 141.73485936 -216.64433418 150.278237 -217.64453125 157.38671875 C-217.73879395 158.0739502 -217.83305664 158.76118164 -217.93017578 159.46923828 C-218.1604414 161.14522223 -218.39429936 162.82071198 -218.62890625 164.49609375 C-201.43369475 164.43532856 -184.23865128 164.35766815 -167.04360962 164.26037884 C-159.05805794 164.21558247 -151.07254925 164.17613148 -143.08691406 164.1496582 C-136.11943956 164.12654625 -129.15210297 164.09300363 -122.18473816 164.04739219 C-118.50208556 164.02363608 -114.81956805 164.00479292 -111.13684082 163.99847984 C-75.43143778 163.92922844 -45.77212077 157.42413778 -19.62890625 131.49609375 C-19.29890625 130.83609375 -18.96890625 130.17609375 -18.62890625 129.49609375 C-17.96890625 129.49609375 -17.30890625 129.49609375 -16.62890625 129.49609375 C-16.62890625 128.83609375 -16.62890625 128.17609375 -16.62890625 127.49609375 C-15.96890625 127.49609375 -15.30890625 127.49609375 -14.62890625 127.49609375 C-14.36335938 126.7484375 -14.0978125 126.00078125 -13.82421875 125.23046875 C-12.64416041 122.53098889 -11.44394841 120.92976911 -9.50390625 118.74609375 C-2.57758734 110.09544021 2.17089694 98.87699778 4.8984375 88.18359375 C5.37109375 86.49609375 5.37109375 86.49609375 6.37109375 85.49609375 C11.92969008 65.24981951 9.16374132 42.18159247 -1.0390625 23.98046875 C-3.34114417 20.04750058 -5.73330487 16.30185788 -8.50390625 12.68359375 C-10.62890625 9.49609375 -10.62890625 9.49609375 -11.19140625 6.80859375 C-9.72857137 0.79471702 -5.59154515 -0.00881887 0 0 Z " fill="#039246" transform="translate(394.62890625,134.50390625)"/>
<path d="M0 0 C1.26070313 0.02449219 2.52140625 0.04898438 3.8203125 0.07421875 C6.875 0.3125 6.875 0.3125 7.875 1.3125 C7.94819621 4.00904854 7.96742537 6.67941458 7.9375 9.375 C7.93298828 10.13361328 7.92847656 10.89222656 7.92382812 11.67382812 C7.9120068 13.55341871 7.89407078 15.43296899 7.875 17.3125 C8.98617187 17.48265625 10.09734375 17.6528125 11.2421875 17.828125 C29.74917264 20.78849369 29.74917264 20.78849369 34.875 24.3125 C36.50226192 28.7581369 34.83728021 32.26850656 33.25 36.5 C33.00121094 37.23669922 32.75242187 37.97339844 32.49609375 38.73242188 C31.7109375 40.85546875 31.7109375 40.85546875 29.875 44.3125 C26.37397683 45.84980825 23.99131309 45.32972394 20.5 44 C13.50692922 41.3934918 7.32052118 39.94999249 -0.125 39.9375 C-1.27742188 39.90076172 -1.27742188 39.90076172 -2.453125 39.86328125 C-8.16220321 39.8341533 -11.41407552 41.07974825 -16.125 44.3125 C-18.56502706 46.75252706 -18.52889518 47.6857523 -18.6875 51.0625 C-18.78224609 52.32320312 -18.78224609 52.32320312 -18.87890625 53.609375 C-17.67601146 57.92234491 -14.7972608 59.92451122 -11.125 62.3125 C-7.91198737 63.8844706 -4.61470026 65.10629265 -1.25 66.3125 C10.24053917 70.69103743 20.54737466 75.65724932 26.3125 87.1875 C28.04816211 96.83006726 26.58441478 105.05697803 21.5546875 113.5390625 C20.10312428 115.59346072 18.56389703 117.4491629 16.875 119.3125 C16.34648437 119.91835937 15.81796875 120.52421875 15.2734375 121.1484375 C9.85931138 126.61026517 3.31590429 128.719439 -3.80859375 131.1484375 C-6.93318069 131.97634333 -6.93318069 131.97634333 -8.125 133.3125 C-8.41062763 136.05543196 -8.57339273 138.79858838 -8.74609375 141.55078125 C-9.125 144.3125 -9.125 144.3125 -11.125 148.3125 C-16.405 148.3125 -21.685 148.3125 -27.125 148.3125 C-27.62 140.8875 -27.62 140.8875 -28.125 133.3125 C-29.28257812 133.13074219 -30.44015625 132.94898438 -31.6328125 132.76171875 C-33.17195908 132.50832267 -34.71101702 132.25438781 -36.25 132 C-37.01054687 131.88205078 -37.77109375 131.76410156 -38.5546875 131.64257812 C-43.2245549 130.85755731 -46.95664268 129.68966224 -51.125 127.3125 C-50.43962073 123.45010226 -49.38016907 119.8397467 -48.125 116.125 C-47.774375 115.07957031 -47.42375 114.03414063 -47.0625 112.95703125 C-46.125 110.3125 -46.125 110.3125 -45.125 108.3125 C-41.27314625 108.00840628 -38.43959109 108.49890501 -34.875 109.8125 C-29.85063057 111.42091095 -25.1056077 111.64942845 -19.875 111.6875 C-18.72209473 111.70780273 -18.72209473 111.70780273 -17.54589844 111.72851562 C-12.68469866 111.69052101 -9.34886154 110.95728715 -5.125 108.3125 C-2.74443926 105.17448811 -2.64376605 102.16237164 -3.125 98.3125 C-7.37433465 92.53340487 -14.87115796 89.90088637 -21.375 87.5 C-31.06778701 83.76069962 -41.36446638 79.12520046 -46.08203125 69.32421875 C-49.23036206 61.23056465 -49.27369963 52.60969437 -46.16015625 44.5 C-40.34357828 32.20836354 -31.0913798 24.98898677 -18.48828125 20.33984375 C-16.37619229 19.62697228 -14.26167281 18.94730859 -12.125 18.3125 C-12.01542969 17.34828125 -11.90585937 16.3840625 -11.79296875 15.390625 C-11.63441406 14.12734375 -11.47585938 12.8640625 -11.3125 11.5625 C-11.16167969 10.30953125 -11.01085937 9.0565625 -10.85546875 7.765625 C-9.3517395 0.65708673 -7.12815789 -0.21223468 0 0 Z " fill="#069347" transform="translate(323.125,133.6875)"/>
<path d="M0 0 C0.66 0 1.32 0 2 0 C2 0.99 2 1.98 2 3 C46.88 2.67 91.76 2.34 138 2 C138 2.66 138 3.32 138 4 C138.99 4.33 139.98 4.66 141 5 C122.91119457 5.02333596 104.82239304 5.04098261 86.73357582 5.05181217 C78.33507408 5.05697364 69.93658168 5.06401352 61.53808594 5.07543945 C54.21997648 5.08539083 46.90187379 5.09185451 39.58375776 5.09408849 C35.70706112 5.09539483 31.83038384 5.09847582 27.95369339 5.10573006 C24.30779369 5.11249741 20.66192139 5.11461549 17.01601601 5.11310768 C15.03399431 5.11351568 13.05197562 5.11890717 11.06996155 5.12442017 C9.89764481 5.1230455 8.72532806 5.12167084 7.51748657 5.12025452 C6.49429636 5.12117631 5.47110615 5.1220981 4.41691017 5.12304783 C2 5 2 5 0 4 C0 2.68 0 1.36 0 0 Z " fill="#238B49" transform="translate(174,296)"/>
<path d="M0 0 C0.93065133 2.60582371 1.14917407 3.64198224 0.0625 6.25 C-0.288125 6.8275 -0.63875 7.405 -1 8 C-1.66 8 -2.32 8 -3 8 C-3 8.66 -3 9.32 -3 10 C-3.66 10 -4.32 10 -5 10 C-5 10.66 -5 11.32 -5 12 C-5.66 12 -6.32 12 -7 12 C-7 12.66 -7 13.32 -7 14 C-7.66 14 -8.32 14 -9 14 C-9 14.66 -9 15.32 -9 16 C-9.66 16 -10.32 16 -11 16 C-11 16.66 -11 17.32 -11 18 C-12.32 17.67 -13.64 17.34 -15 17 C-13.06402271 14.72785301 -11.12628828 12.45724637 -9.1875 10.1875 C-8.64029297 9.54490234 -8.09308594 8.90230469 -7.52929688 8.24023438 C-6.73168945 7.30727539 -6.73168945 7.30727539 -5.91796875 6.35546875 C-5.43094482 5.78465576 -4.9439209 5.21384277 -4.44213867 4.62573242 C-3.01735855 3.01956841 -1.53368638 1.50185891 0 0 Z " fill="#22954F" transform="translate(233,128)"/>
<path d="M0 0 C0 3.59857954 -0.95830515 5.09451118 -3 8 C-3.66 8 -4.32 8 -5 8 C-5 8.66 -5 9.32 -5 10 C-9.625 12.125 -9.625 12.125 -13 11 C-11.39801112 9.53927468 -9.79332884 8.08150284 -8.1875 6.625 C-7.29417969 5.81289062 -6.40085938 5.00078125 -5.48046875 4.1640625 C-3 2 -3 2 0 0 Z " fill="#279657" transform="translate(247,116)"/>
<path d="M0 0 C1.5778125 0.433125 1.5778125 0.433125 3.1875 0.875 C1.8675 1.205 0.5475 1.535 -0.8125 1.875 C-0.8125 2.535 -0.8125 3.195 -0.8125 3.875 C-2.4625 3.875 -4.1125 3.875 -5.8125 3.875 C-6.1425 6.515 -6.4725 9.155 -6.8125 11.875 C-7.4725 11.875 -8.1325 11.875 -8.8125 11.875 C-9.27200888 8.01512539 -8.99728573 5.57341832 -6.75 2.4375 C-3.8125 -0.125 -3.8125 -0.125 0 0 Z " fill="#3A9B5C" transform="translate(464.8125,60.125)"/>
<path d="M0 0 C0.66 0.66 1.32 1.32 2 2 C0.71034824 3.37562854 -0.62689293 4.70766393 -2 6 C-2.66 6 -3.32 6 -4 6 C-4.33 7.98 -4.66 9.96 -5 12 C-5.66 11.67 -6.32 11.34 -7 11 C-6.875 7.75 -6.875 7.75 -6 4 C-2.9375 1.5625 -2.9375 1.5625 0 0 Z " fill="#1E944E" transform="translate(104,306)"/>
<path d="M0 0 C0 0.99 0 1.98 0 3 C-1.875 4.5625 -1.875 4.5625 -4 6 C-4.66 6.66 -5.32 7.32 -6 8 C-9.625 8.125 -9.625 8.125 -13 8 C-8.98745115 4.48901975 -4.79016959 2.23462006 0 0 Z " fill="#269454" transform="translate(126,294)"/>
<path d="M0 0 C1.32 0 2.64 0 4 0 C4 0.66 4 1.32 4 2 C4.66 2 5.32 2 6 2 C6 3.32 6 4.64 6 6 C7.32 6 8.64 6 10 6 C9.67 7.32 9.34 8.64 9 10 C7.86800647 9.0919838 6.74467637 8.17316174 5.625 7.25 C4.99851562 6.73953125 4.37203125 6.2290625 3.7265625 5.703125 C1.91687682 3.91800519 0.99882545 2.32050356 0 0 Z " fill="#2C9755" transform="translate(278,204)"/>
<path d="M0 0 C0.66 0.33 1.32 0.66 2 1 C2.375 3.6875 2.375 3.6875 2 7 C0.176017 9.06398076 -1.72763839 10.39041053 -4 12 C-3.52309796 10.37433394 -3.04340334 8.74948689 -2.5625 7.125 C-2.29566406 6.22007812 -2.02882813 5.31515625 -1.75390625 4.3828125 C-1 2 -1 2 0 0 Z " fill="#239A52" transform="translate(278,242)"/>
<path d="M0 0 C1.65 0 3.3 0 5 0 C5 0.66 5 1.32 5 2 C4.34 2 3.68 2 3 2 C3 4.64 3 7.28 3 10 C2.34 9.67 1.68 9.34 1 9 C0.5859375 6.93359375 0.5859375 6.93359375 0.375 4.4375 C0.30023438 3.61121094 0.22546875 2.78492188 0.1484375 1.93359375 C0.09945313 1.29550781 0.05046875 0.65742188 0 0 Z " fill="#2E9B58" transform="translate(295,266)"/>
<path d="M0 0 C0.33 0 0.66 0 1 0 C1.08096803 1.45742463 1.13917774 2.91612807 1.1875 4.375 C1.22230469 5.18710938 1.25710938 5.99921875 1.29296875 6.8359375 C1.19628906 7.55007812 1.09960938 8.26421875 1 9 C0.01 9.66 -0.98 10.32 -2 11 C-3 9 -3 9 -2.44140625 6.8359375 C-2.15136719 6.02382812 -1.86132812 5.21171875 -1.5625 4.375 C-1.27503906 3.55773437 -0.98757813 2.74046875 -0.69140625 1.8984375 C-0.46324219 1.27195313 -0.23507812 0.64546875 0 0 Z " fill="#309958" transform="translate(399,225)"/>
<path d="M0 0 C0.99 0.33 1.98 0.66 3 1 C2.01 4.3 1.02 7.6 0 11 C-0.33 11 -0.66 11 -1 11 C-1.125 3.375 -1.125 3.375 0 0 Z " fill="#229351" transform="translate(427,225)"/>
<path d="M0 0 C0.33 0.66 0.66 1.32 1 2 C1.66 2 2.32 2 3 2 C2.67 5.3 2.34 8.6 2 12 C-0.35333796 7.29332409 -0.17102038 5.1306114 0 0 Z " fill="#33955D" transform="translate(221,200)"/>
<path d="M0 0 C0 1.32 0 2.64 0 4 C-4.625 6.125 -4.625 6.125 -8 5 C-2.25 0 -2.25 0 0 0 Z " fill="#1F924D" transform="translate(242,122)"/>
<path d="M0 0 C0 1.32 0 2.64 0 4 C-2.31 4 -4.62 4 -7 4 C-5.53303752 1.06607504 -3.25996861 0 0 0 Z " fill="#2E9956" transform="translate(146,284)"/>
<path d="M0 0 C0 0.66 0 1.32 0 2 C-0.66 2 -1.32 2 -2 2 C-2 2.66 -2 3.32 -2 4 C-3.32 4 -4.64 4 -6 4 C-6 3.01 -6 2.02 -6 1 C-4 0 -4 0 0 0 Z " fill="#189A48" transform="translate(152,282)"/>
<path d="M0 0 C2.97 0.495 2.97 0.495 6 1 C6 1.99 6 2.98 6 4 C4.02 4 2.04 4 0 4 C0 2.68 0 1.36 0 0 Z " fill="#219450" transform="translate(288,244)"/>
<path d="M0 0 C2.4375 0.8125 2.4375 0.8125 5 2 C5.33 2.99 5.66 3.98 6 5 C4.02 4.34 2.04 3.68 0 3 C0 2.01 0 1.02 0 0 Z " fill="#299860" transform="translate(290,213)"/>
<path d="M0 0 C3.465 1.485 3.465 1.485 7 3 C6.67 3.99 6.34 4.98 6 6 C3.96166576 4.7260411 1.96147874 3.38938077 0 2 C0 1.34 0 0.68 0 0 Z " fill="#319559" transform="translate(352,156)"/>
<path d="M0 0 C-0.99 0.33 -1.98 0.66 -3 1 C-3 1.66 -3 2.32 -3 3 C-4.98 3 -6.96 3 -9 3 C-9 2.34 -9 1.68 -9 1 C-5.92677456 0.08941469 -3.19902639 -0.08886184 0 0 Z " fill="#0A9841" transform="translate(313,117)"/>
</svg>
